<svg width="100%" height="100%" viewBox="0 0 74 31" fill="none" xmlns="http://www.w3.org/2000/svg" fit="" preserveAspectRatio="xMidYMid meet" focusable="false">
<g clip-path="url('/#clip0_892:1303')">
<path d="M44.1061 22.146C44.3218 25.2865 47.1276 27.0353 49.8261 26.9998C52.129 26.9998 53.6761 25.9652 54.5748 24.3583H59.4319C58.4962 26.5351 57.0933 28.1775 55.439 29.283C53.7846 30.4252 51.8417 30.9964 49.7904 30.9964C43.7103 30.9964 39.3574 26.1071 39.3574 20.6467C39.3574 15.0787 43.7473 10.1895 49.7189 10.1895C52.6689 10.1895 55.259 11.2962 57.0946 13.1868C59.5047 15.6498 60.4046 18.7182 60.0089 22.1448H44.1061V22.146ZM55.3675 18.5775C55.1875 16.7211 53.2089 14.1163 49.7546 14.1517C46.2647 14.1517 44.3576 16.6502 44.1788 18.5775H55.3675Z" fill="#005DB4"></path>
<path d="M63.6948 10.797H68.1562V13.3664C69.0192 11.6176 70.6391 10.2259 73.6248 10.1904V14.9011H73.4091C70.0991 14.9011 68.4077 16.4359 68.4077 19.8259V30.9998H63.6948V10.797Z" fill="#005DB4"></path>
<path d="M39.6769 10.0811H25.6257C24.9292 10.0811 24.3178 10.443 23.9726 10.9872L22.5808 12.8706C22.4834 13.0026 22.5783 13.1873 22.7423 13.1885L34.641 13.246C34.7742 13.2472 34.9061 13.213 35.022 13.1494L39.7829 10.5433C39.8964 10.492 39.9642 10.355 39.9025 10.2144C39.8643 10.13 39.7718 10.0811 39.6769 10.0811Z" fill="#C8002D"></path>
<path d="M19.6418 20.8265C17.8419 20.8265 13.1685 23.9535 13.1685 23.9535C13.0563 24.0085 12.9219 24.0281 12.7826 23.9963C12.578 23.9498 12.4116 23.7835 12.366 23.5805C12.3339 23.4411 12.3549 23.309 12.4116 23.1965C12.4116 23.1965 14.5381 19.0422 14.6454 18.8294C14.7538 18.6166 14.7896 18.4601 14.7896 18.4601C14.8167 18.372 14.8303 18.2779 14.8303 18.1813C14.8303 17.9807 14.7686 17.7948 14.6639 17.6395C14.6639 17.6395 14.5702 17.4977 14.3742 17.2934C14.2016 17.1124 10.878 13.7494 10.6425 13.4987C10.6425 13.4987 10.2789 13.177 10.539 12.8187C10.6401 12.6793 10.8114 12.6047 10.9853 12.6047H16.28C17.1689 12.6047 18.0084 12.195 18.4855 11.6325L18.7628 11.2827C18.9736 11.0198 20.4665 8.93349 20.6625 8.6302C21.4959 7.3339 22.6522 5.89696 23.1121 4.22644C23.3722 3.28112 22.3946 0.968559 22.296 0.606572C22.1702 0.144306 21.7782 0 21.5748 0C21.396 0 21.0213 0.0366879 20.7082 0.555209C20.5208 0.86461 15.0719 9.20742 15.0719 9.20742C14.7218 9.72228 14.1276 10.0598 13.4545 10.0598C13.4545 10.0598 1.49659 10.0561 1.16744 10.0561C0.398186 10.0574 0 10.4267 0 10.8804V10.8987C0 10.9428 0.0049311 10.9697 0.011095 11.0076C0.0554749 11.2534 0.175054 11.5016 0.430238 11.7792C2.87483 14.4501 7.75539 19.244 7.97605 19.5045L8.19302 19.7637C8.33479 19.9313 8.41862 20.1477 8.41862 20.3838C8.41862 20.7311 8.21398 21.0821 8.21398 21.0821C7.04654 23.4924 3.86721 29.6144 3.73777 29.8981C3.68846 29.9984 3.59107 30.2357 3.59354 30.3555V30.4069C3.59354 30.7138 3.84502 30.9633 4.15445 30.9633H4.23458C4.3295 30.9633 4.49963 30.9254 4.65003 30.8581C4.74125 30.8166 12.472 27.0842 14.633 26.0422C15.6304 25.5604 15.9472 25.5506 16.6757 25.9273C17.2465 26.222 23.4178 29.623 25.0241 30.5169C25.405 30.7297 25.7453 30.9645 26.1163 30.9645H26.1287C26.533 30.9645 26.8597 30.6392 26.8597 30.2393L26.8585 30.0535C26.8572 29.9996 26.4751 24.5735 26.4529 24.3302C26.4529 24.3302 26.4664 24.1504 26.4344 24.1039C25.373 22.5569 21.5316 20.8252 19.6418 20.8265Z" fill="#C8002D"></path>
<path d="M21.7375 15.1836L30.5346 15.1738C31.0881 15.1726 31.2804 15.8538 30.7972 16.1033L26.5823 18.2862C26.5022 18.3278 26.4122 18.3498 26.3197 18.3498H20.808C20.6909 18.3498 20.5787 18.3155 20.485 18.2507C20.236 18.0783 19.8156 17.6869 20.0548 17.1354C20.321 16.5203 20.93 15.7303 21.1532 15.4514C21.2062 15.3842 21.2764 15.3316 21.359 15.2961C21.3972 15.2802 21.4737 15.2472 21.5119 15.2301C21.5834 15.1995 21.6598 15.1848 21.7375 15.1836Z" fill="#005DB4"></path>
</g>
</svg>